<?xml version="1.0" encoding="UTF-8" standalone="no"?>
<!DOCTYPE svg PUBLIC "-//W3C//DTD SVG 1.1//EN" "http://www.w3.org/Graphics/SVG/1.1/DTD/svg11.dtd">
<svg xmlns="http://www.w3.org/2000/svg" version="1.1" xmlns:xl="http://www.w3.org/1999/xlink" xmlns:dc="http://purl.org/dc/elements/1.1/" viewBox="43.76297 34.68164 407.86203 379.166" width="407.86203" height="379.166">
  <defs>
    <marker orient="auto" overflow="visible" markerUnits="strokeWidth" id="FilledArrow_Marker" stroke-linejoin="miter" stroke-miterlimit="10" viewBox="-1 -4 10 8" markerWidth="10" markerHeight="8" color="#8a8a8a">
      <g>
        <path d="M 8 0 L 0 -3 L 0 3 Z" fill="currentColor" stroke="currentColor" stroke-width="1"/>
      </g>
    </marker>
  </defs>
  <g id="Canvas_1" fill="none" stroke="none" stroke-opacity="1" stroke-dasharray="none" fill-opacity="1">
    <title>Canvas 1</title>
    <rect fill="white" x="43.76297" y="34.68164" width="407.86203" height="379.166"/>
    <g id="Canvas_1_Layer_1">
      <title>Layer 1</title>
      <g id="Group_4">
        <g id="Graphic_147">
          <rect x="408.375" y="385.22266" width="42.75" height="28.125" fill="white"/>
          <rect x="408.375" y="385.22266" width="42.75" height="28.125" stroke="gray" stroke-linecap="round" stroke-linejoin="round" stroke-width="1"/>
          <text transform="translate(413.375 390.06116)" fill="black">
            <tspan font-family="Helvetica Neue" font-size="16" fill="black" x="7.479" y="15" xml:space="preserve">39</tspan>
          </text>
        </g>
        <g id="Graphic_146">
          <rect x="310.5" y="385.22266" width="97.875" height="28.125" fill="white"/>
          <rect x="310.5" y="385.22266" width="97.875" height="28.125" stroke="gray" stroke-linecap="round" stroke-linejoin="round" stroke-width="1"/>
          <text transform="translate(315.5 390.06116)" fill="black">
            <tspan font-family="Helvetica Neue" font-size="16" fill="black" x="0" y="15" xml:space="preserve">Gamble</tspan>
          </text>
        </g>
        <g id="Graphic_145">
          <rect x="219.47656" y="385.22266" width="91.02344" height="28.125" fill="white"/>
          <rect x="219.47656" y="385.22266" width="91.02344" height="28.125" stroke="gray" stroke-linecap="round" stroke-linejoin="round" stroke-width="1"/>
          <text transform="translate(224.47656 390.06116)" fill="black">
            <tspan font-family="Helvetica Neue" font-size="16" fill="black" x="0" y="15" xml:space="preserve">Scarlet</tspan>
          </text>
        </g>
        <g id="Graphic_144">
          <rect x="408.375" y="357.09766" width="42.75" height="28.125" fill="white"/>
          <rect x="408.375" y="357.09766" width="42.75" height="28.125" stroke="gray" stroke-linecap="round" stroke-linejoin="round" stroke-width="1"/>
          <text transform="translate(413.375 361.93616)" fill="black">
            <tspan font-family="Helvetica Neue" font-size="16" fill="black" x="7.479" y="15" xml:space="preserve">16</tspan>
          </text>
        </g>
        <g id="Graphic_143">
          <rect x="310.5" y="357.09766" width="97.875" height="28.125" fill="white"/>
          <rect x="310.5" y="357.09766" width="97.875" height="28.125" stroke="gray" stroke-linecap="round" stroke-linejoin="round" stroke-width="1"/>
          <text transform="translate(315.5 361.93616)" fill="black">
            <tspan font-family="Helvetica Neue" font-size="16" fill="black" x="0" y="15" xml:space="preserve">Brandt</tspan>
          </text>
        </g>
        <g id="Graphic_142">
          <rect x="219.47656" y="357.09766" width="91.02344" height="28.125" fill="white"/>
          <rect x="219.47656" y="357.09766" width="91.02344" height="28.125" stroke="gray" stroke-linecap="round" stroke-linejoin="round" stroke-width="1"/>
          <text transform="translate(224.47656 361.93616)" fill="black">
            <tspan font-family="Helvetica Neue" font-size="16" fill="black" x="0" y="15" xml:space="preserve">Niko</tspan>
          </text>
        </g>
        <g id="Graphic_141">
          <rect x="408.375" y="328.97266" width="42.75" height="28.125" fill="white"/>
          <rect x="408.375" y="328.97266" width="42.75" height="28.125" stroke="gray" stroke-linecap="round" stroke-linejoin="round" stroke-width="1"/>
          <text transform="translate(413.375 333.81116)" fill="black">
            <tspan font-family="Helvetica Neue" font-size="16" fill="black" x="11.927" y="15" xml:space="preserve">8</tspan>
          </text>
        </g>
        <g id="Graphic_140">
          <rect x="310.5" y="328.97266" width="97.875" height="28.125" fill="white"/>
          <rect x="310.5" y="328.97266" width="97.875" height="28.125" stroke="gray" stroke-linecap="round" stroke-linejoin="round" stroke-width="1"/>
          <text transform="translate(315.5 333.81116)" fill="black">
            <tspan font-family="Helvetica Neue" font-size="16" fill="black" x="0" y="15" xml:space="preserve">Ingram</tspan>
          </text>
        </g>
        <g id="Graphic_139">
          <rect x="219.47656" y="328.97266" width="91.02344" height="28.125" fill="white"/>
          <rect x="219.47656" y="328.97266" width="91.02344" height="28.125" stroke="gray" stroke-linecap="round" stroke-linejoin="round" stroke-width="1"/>
          <text transform="translate(224.47656 333.81116)" fill="black">
            <tspan font-family="Helvetica Neue" font-size="16" fill="black" x="0" y="15" xml:space="preserve">Mike</tspan>
          </text>
        </g>
        <g id="Graphic_138">
          <rect x="219.47656" y="300.84766" width="91.02344" height="28.125" fill="white"/>
          <rect x="219.47656" y="300.84766" width="91.02344" height="28.125" stroke="gray" stroke-linecap="round" stroke-linejoin="round" stroke-width="1"/>
          <text transform="translate(224.47656 305.68616)" fill="black">
            <tspan font-family="Helvetica Neue" font-size="16" fill="black" x="0" y="15" xml:space="preserve">Kevin</tspan>
          </text>
        </g>
        <g id="Graphic_137">
          <rect x="310.5" y="300.84766" width="97.875" height="28.125" fill="white"/>
          <rect x="310.5" y="300.84766" width="97.875" height="28.125" stroke="gray" stroke-linecap="round" stroke-linejoin="round" stroke-width="1"/>
          <text transform="translate(315.5 305.68616)" fill="black">
            <tspan font-family="Helvetica Neue" font-size="16" fill="black" x="0" y="15" xml:space="preserve">Cochran</tspan>
          </text>
        </g>
        <g id="Graphic_136">
          <rect x="408.375" y="300.84766" width="42.75" height="28.125" fill="white"/>
          <rect x="408.375" y="300.84766" width="42.75" height="28.125" stroke="gray" stroke-linecap="round" stroke-linejoin="round" stroke-width="1"/>
          <text transform="translate(413.375 305.68616)" fill="black">
            <tspan font-family="Helvetica Neue" font-size="16" fill="black" x="7.479" y="15" xml:space="preserve">14</tspan>
          </text>
        </g>
        <g id="Graphic_135">
          <rect x="408.375" y="272.72266" width="42.75" height="28.125" fill="white"/>
          <rect x="408.375" y="272.72266" width="42.75" height="28.125" stroke="gray" stroke-linecap="round" stroke-linejoin="round" stroke-width="1"/>
          <text transform="translate(413.375 277.56116)" fill="black">
            <tspan font-family="Helvetica Neue" font-size="16" fill="black" x="7.479" y="15" xml:space="preserve">29</tspan>
          </text>
        </g>
        <g id="Graphic_134">
          <rect x="219.47656" y="272.72266" width="91.02344" height="28.125" fill="white"/>
          <rect x="219.47656" y="272.72266" width="91.02344" height="28.125" stroke="gray" stroke-linecap="round" stroke-linejoin="round" stroke-width="1"/>
          <text transform="translate(224.47656 277.56116)" fill="black">
            <tspan font-family="Helvetica Neue" font-size="16" fill="black" x="0" y="15" xml:space="preserve">Jazmine</tspan>
          </text>
        </g>
        <g id="Graphic_133">
          <rect x="310.5" y="272.72266" width="97.875" height="28.125" fill="white"/>
          <rect x="310.5" y="272.72266" width="97.875" height="28.125" stroke="gray" stroke-linecap="round" stroke-linejoin="round" stroke-width="1"/>
          <text transform="translate(315.5 277.56116)" fill="black">
            <tspan font-family="Helvetica Neue" font-size="16" fill="black" x="0" y="15" xml:space="preserve">Crosby</tspan>
          </text>
        </g>
        <g id="Graphic_132">
          <rect x="219.47656" y="244.59766" width="91.02344" height="28.125" fill="white"/>
          <rect x="219.47656" y="244.59766" width="91.02344" height="28.125" stroke="gray" stroke-linecap="round" stroke-linejoin="round" stroke-width="1"/>
          <text transform="translate(224.47656 249.43616)" fill="black">
            <tspan font-family="Helvetica Neue" font-size="16" fill="black" x="0" y="15" xml:space="preserve">Isiah</tspan>
          </text>
        </g>
        <g id="Graphic_131">
          <rect x="310.5" y="244.59766" width="97.875" height="28.125" fill="white"/>
          <rect x="310.5" y="244.59766" width="97.875" height="28.125" stroke="gray" stroke-linecap="round" stroke-linejoin="round" stroke-width="1"/>
          <text transform="translate(315.5 249.43616)" fill="black">
            <tspan font-family="Helvetica Neue" font-size="16" fill="black" x="0" y="15" xml:space="preserve">Yoder</tspan>
          </text>
        </g>
        <g id="Graphic_130">
          <rect x="408.375" y="244.59766" width="42.75" height="28.125" fill="white"/>
          <rect x="408.375" y="244.59766" width="42.75" height="28.125" stroke="gray" stroke-linecap="round" stroke-linejoin="round" stroke-width="1"/>
          <text transform="translate(413.375 249.43616)" fill="black">
            <tspan font-family="Helvetica Neue" font-size="16" fill="black" x="7.479" y="15" xml:space="preserve">41</tspan>
          </text>
        </g>
        <g id="Graphic_129">
          <rect x="408.375" y="216.47266" width="42.75" height="28.125" fill="white"/>
          <rect x="408.375" y="216.47266" width="42.75" height="28.125" stroke="gray" stroke-linecap="round" stroke-linejoin="round" stroke-width="1"/>
          <text transform="translate(413.375 221.31116)" fill="black">
            <tspan font-family="Helvetica Neue" font-size="16" fill="black" x="7.479" y="15" xml:space="preserve">57</tspan>
          </text>
        </g>
        <g id="Graphic_128">
          <rect x="219.47656" y="216.47266" width="91.02344" height="28.125" fill="white"/>
          <rect x="219.47656" y="216.47266" width="91.02344" height="28.125" stroke="gray" stroke-linecap="round" stroke-linejoin="round" stroke-width="1"/>
          <text transform="translate(224.47656 221.31116)" fill="black">
            <tspan font-family="Helvetica Neue" font-size="16" fill="black" x="0" y="15" xml:space="preserve">Haley</tspan>
          </text>
        </g>
        <g id="Graphic_127">
          <rect x="310.5" y="216.47266" width="97.875" height="28.125" fill="white"/>
          <rect x="310.5" y="216.47266" width="97.875" height="28.125" stroke="gray" stroke-linecap="round" stroke-linejoin="round" stroke-width="1"/>
          <text transform="translate(315.5 221.31116)" fill="black">
            <tspan font-family="Helvetica Neue" font-size="16" fill="black" x="0" y="15" xml:space="preserve">Khan</tspan>
          </text>
        </g>
        <g id="Graphic_126">
          <rect x="310.5" y="188.34766" width="97.875" height="28.125" fill="white"/>
          <rect x="310.5" y="188.34766" width="97.875" height="28.125" stroke="gray" stroke-linecap="round" stroke-linejoin="round" stroke-width="1"/>
          <text transform="translate(315.5 193.18616)" fill="black">
            <tspan font-family="Helvetica Neue" font-size="16" fill="black" x="0" y="15" xml:space="preserve">Espinoza</tspan>
          </text>
        </g>
        <g id="Graphic_125">
          <rect x="219.47656" y="188.34766" width="91.02344" height="28.125" fill="white"/>
          <rect x="219.47656" y="188.34766" width="91.02344" height="28.125" stroke="gray" stroke-linecap="round" stroke-linejoin="round" stroke-width="1"/>
          <text transform="translate(224.47656 193.18616)" fill="black">
            <tspan font-family="Helvetica Neue" font-size="16" fill="black" x="0" y="15" xml:space="preserve">Delaney</tspan>
          </text>
        </g>
        <g id="Graphic_124">
          <rect x="408.375" y="188.34766" width="42.75" height="28.125" fill="white"/>
          <rect x="408.375" y="188.34766" width="42.75" height="28.125" stroke="gray" stroke-linecap="round" stroke-linejoin="round" stroke-width="1"/>
          <text transform="translate(413.375 193.18616)" fill="black">
            <tspan font-family="Helvetica Neue" font-size="16" fill="black" x="7.479" y="15" xml:space="preserve">10</tspan>
          </text>
        </g>
        <g id="Graphic_123">
          <rect x="219.47656" y="160.22266" width="91.02344" height="28.125" fill="white"/>
          <rect x="219.47656" y="160.22266" width="91.02344" height="28.125" stroke="gray" stroke-linecap="round" stroke-linejoin="round" stroke-width="1"/>
          <text transform="translate(224.47656 165.06116)" fill="black">
            <tspan font-family="Helvetica Neue" font-size="16" fill="black" x="0" y="15" xml:space="preserve">Cruz</tspan>
          </text>
        </g>
        <g id="Graphic_122">
          <rect x="310.5" y="160.22266" width="97.875" height="28.125" fill="white"/>
          <rect x="310.5" y="160.22266" width="97.875" height="28.125" stroke="gray" stroke-linecap="round" stroke-linejoin="round" stroke-width="1"/>
          <text transform="translate(315.5 165.06116)" fill="black">
            <tspan font-family="Helvetica Neue" font-size="16" fill="black" x="0" y="15" xml:space="preserve">Alvarado</tspan>
          </text>
        </g>
        <g id="Graphic_121">
          <rect x="408.375" y="160.22266" width="42.75" height="28.125" fill="white"/>
          <rect x="408.375" y="160.22266" width="42.75" height="28.125" stroke="gray" stroke-linecap="round" stroke-linejoin="round" stroke-width="1"/>
          <text transform="translate(413.375 165.06116)" fill="black">
            <tspan font-family="Helvetica Neue" font-size="16" fill="black" x="7.479" y="15" xml:space="preserve">80</tspan>
          </text>
        </g>
        <g id="Graphic_120">
          <rect x="310.5" y="132.09766" width="97.875" height="28.125" fill="white"/>
          <rect x="310.5" y="132.09766" width="97.875" height="28.125" stroke="gray" stroke-linecap="round" stroke-linejoin="round" stroke-width="1"/>
          <text transform="translate(315.5 136.93616)" fill="black">
            <tspan font-family="Helvetica Neue" font-size="16" fill="black" x="0" y="15" xml:space="preserve">Burnett</tspan>
          </text>
        </g>
        <g id="Graphic_119">
          <rect x="219.47656" y="132.09766" width="91.02344" height="28.125" fill="white"/>
          <rect x="219.47656" y="132.09766" width="91.02344" height="28.125" stroke="gray" stroke-linecap="round" stroke-linejoin="round" stroke-width="1"/>
          <text transform="translate(224.47656 136.93616)" fill="black">
            <tspan font-family="Helvetica Neue" font-size="16" fill="black" x="0" y="15" xml:space="preserve">Cherish</tspan>
          </text>
        </g>
        <g id="Graphic_118">
          <rect x="408.375" y="132.09766" width="42.75" height="28.125" fill="white"/>
          <rect x="408.375" y="132.09766" width="42.75" height="28.125" stroke="gray" stroke-linecap="round" stroke-linejoin="round" stroke-width="1"/>
          <text transform="translate(413.375 136.93616)" fill="black">
            <tspan font-family="Helvetica Neue" font-size="16" fill="black" x="7.479" y="15" xml:space="preserve">19</tspan>
          </text>
        </g>
        <g id="Graphic_117">
          <rect x="408.375" y="103.97266" width="42.75" height="28.125" fill="white"/>
          <rect x="408.375" y="103.97266" width="42.75" height="28.125" stroke="gray" stroke-linecap="round" stroke-linejoin="round" stroke-width="1"/>
          <text transform="translate(413.375 108.81116)" fill="black">
            <tspan font-family="Helvetica Neue" font-size="16" fill="black" x="7.479" y="15" xml:space="preserve">90</tspan>
          </text>
        </g>
        <g id="Graphic_116">
          <rect x="310.5" y="103.97266" width="97.875" height="28.125" fill="white"/>
          <rect x="310.5" y="103.97266" width="97.875" height="28.125" stroke="gray" stroke-linecap="round" stroke-linejoin="round" stroke-width="1"/>
          <text transform="translate(315.5 108.81116)" fill="black">
            <tspan font-family="Helvetica Neue" font-size="16" fill="black" x="0" y="15" xml:space="preserve">Hatfield</tspan>
          </text>
        </g>
        <g id="Graphic_115">
          <rect x="219.47656" y="103.97266" width="91.02344" height="28.125" fill="white"/>
          <rect x="219.47656" y="103.97266" width="91.02344" height="28.125" stroke="gray" stroke-linecap="round" stroke-linejoin="round" stroke-width="1"/>
          <text transform="translate(224.47656 108.81116)" fill="black">
            <tspan font-family="Helvetica Neue" font-size="16" fill="black" x="0" y="15" xml:space="preserve">Brooklyn</tspan>
          </text>
        </g>
        <g id="Graphic_103">
          <rect x="408.375" y="75.84766" width="42.75" height="28.125" fill="white"/>
          <rect x="408.375" y="75.84766" width="42.75" height="28.125" stroke="gray" stroke-linecap="round" stroke-linejoin="round" stroke-width="1"/>
          <text transform="translate(413.375 80.68616)" fill="black">
            <tspan font-family="Helvetica Neue" font-size="16" fill="black" x="7.479" y="15" xml:space="preserve">40</tspan>
          </text>
        </g>
        <g id="Graphic_98">
          <rect x="310.5" y="75.84766" width="97.875" height="28.125" fill="white"/>
          <rect x="310.5" y="75.84766" width="97.875" height="28.125" stroke="gray" stroke-linecap="round" stroke-linejoin="round" stroke-width="1"/>
          <text transform="translate(315.5 80.68616)" fill="black">
            <tspan font-family="Helvetica Neue" font-size="16" fill="black" x="0" y="15" xml:space="preserve">Chandler</tspan>
          </text>
        </g>
        <g id="Graphic_5">
          <rect x="219.47656" y="75.84766" width="91.02344" height="28.125" fill="white"/>
          <rect x="219.47656" y="75.84766" width="91.02344" height="28.125" stroke="gray" stroke-linecap="round" stroke-linejoin="round" stroke-width="1"/>
          <text transform="translate(224.47656 80.68616)" fill="black">
            <tspan font-family="Helvetica Neue" font-size="16" fill="black" x="0" y="15" xml:space="preserve">Amara</tspan>
          </text>
        </g>
      </g>
      <g id="Group_28">
        <g id="Graphic_40">
          <text transform="translate(203.35656 393.14516)" fill="#8a8a8a">
            <tspan font-family="Helvetica Neue" font-size="10" fill="#8a8a8a" x="261835e-17" y="10" xml:space="preserve">11</tspan>
          </text>
        </g>
        <g id="Graphic_39">
          <text transform="translate(203.35656 365.02016)" fill="#8a8a8a">
            <tspan font-family="Helvetica Neue" font-size="10" fill="#8a8a8a" x="261835e-17" y="10" xml:space="preserve">10</tspan>
          </text>
        </g>
        <g id="Graphic_38">
          <text transform="translate(208.91656 336.89516)" fill="#8a8a8a">
            <tspan font-family="Helvetica Neue" font-size="10" fill="#8a8a8a" x="0" y="10" xml:space="preserve">9</tspan>
          </text>
        </g>
        <g id="Graphic_37">
          <text transform="translate(208.91656 308.77016)" fill="#8a8a8a">
            <tspan font-family="Helvetica Neue" font-size="10" fill="#8a8a8a" x="0" y="10" xml:space="preserve">8</tspan>
          </text>
        </g>
        <g id="Graphic_36">
          <text transform="translate(208.91656 280.64516)" fill="#8a8a8a">
            <tspan font-family="Helvetica Neue" font-size="10" fill="#8a8a8a" x="0" y="10" xml:space="preserve">7</tspan>
          </text>
        </g>
        <g id="Graphic_35">
          <text transform="translate(208.91656 252.52016)" fill="#8a8a8a">
            <tspan font-family="Helvetica Neue" font-size="10" fill="#8a8a8a" x="0" y="10" xml:space="preserve">6</tspan>
          </text>
        </g>
        <g id="Graphic_34">
          <text transform="translate(208.91656 224.39516)" fill="#8a8a8a">
            <tspan font-family="Helvetica Neue" font-size="10" fill="#8a8a8a" x="0" y="10" xml:space="preserve">5</tspan>
          </text>
        </g>
        <g id="Graphic_33">
          <text transform="translate(208.91656 196.27016)" fill="#8a8a8a">
            <tspan font-family="Helvetica Neue" font-size="10" fill="#8a8a8a" x="0" y="10" xml:space="preserve">4</tspan>
          </text>
        </g>
        <g id="Graphic_32">
          <text transform="translate(208.91656 168.14516)" fill="#8a8a8a">
            <tspan font-family="Helvetica Neue" font-size="10" fill="#8a8a8a" x="0" y="10" xml:space="preserve">3</tspan>
          </text>
        </g>
        <g id="Graphic_31">
          <text transform="translate(208.91656 140.02016)" fill="#8a8a8a">
            <tspan font-family="Helvetica Neue" font-size="10" fill="#8a8a8a" x="0" y="10" xml:space="preserve">2</tspan>
          </text>
        </g>
        <g id="Graphic_30">
          <text transform="translate(208.91656 111.89516)" fill="#8a8a8a">
            <tspan font-family="Helvetica Neue" font-size="10" fill="#8a8a8a" x="0" y="10" xml:space="preserve">1</tspan>
          </text>
        </g>
        <g id="Graphic_29">
          <text transform="translate(208.91656 83.77016)" fill="#8a8a8a">
            <tspan font-family="Helvetica Neue" font-size="10" fill="#8a8a8a" x="0" y="10" xml:space="preserve">0</tspan>
          </text>
        </g>
      </g>
      <g id="Group_62">
        <g id="Graphic_72">
          <rect x="57.00195" y="357.26432" width="33.60547" height="28.041667" fill="white"/>
          <rect x="57.00195" y="357.26432" width="33.60547" height="28.041667" stroke="gray" stroke-linecap="round" stroke-linejoin="round" stroke-width="1"/>
          <text transform="translate(62.00195 362.06116)" fill="black">
            <tspan font-family="Helvetica Neue" font-size="16" fill="black" x="7.354734" y="15" xml:space="preserve">5</tspan>
          </text>
        </g>
        <g id="Graphic_71">
          <rect x="57.00195" y="329.22266" width="33.60547" height="28.041667" fill="white"/>
          <rect x="57.00195" y="329.22266" width="33.60547" height="28.041667" stroke="gray" stroke-linecap="round" stroke-linejoin="round" stroke-width="1"/>
          <text transform="translate(62.00195 334.0195)" fill="black">
            <tspan font-family="Helvetica Neue" font-size="16" fill="black" x="7.354734" y="15" xml:space="preserve">9</tspan>
          </text>
        </g>
        <g id="Graphic_63">
          <rect x="57.00195" y="104.88932" width="33.60547" height="28.041667" fill="white"/>
          <rect x="57.00195" y="104.88932" width="33.60547" height="28.041667" stroke="gray" stroke-linecap="round" stroke-linejoin="round" stroke-width="1"/>
          <text transform="translate(62.00195 109.68616)" fill="black">
            <tspan font-family="Helvetica Neue" font-size="16" fill="black" x="2.9067344" y="15" xml:space="preserve">10</tspan>
          </text>
        </g>
        <g id="Graphic_64">
          <rect x="57.00195" y="132.93099" width="33.60547" height="28.041667" fill="white"/>
          <rect x="57.00195" y="132.93099" width="33.60547" height="28.041667" stroke="gray" stroke-linecap="round" stroke-linejoin="round" stroke-width="1"/>
          <text transform="translate(62.00195 137.72782)" fill="black">
            <tspan font-family="Helvetica Neue" font-size="16" fill="black" x="7.354734" y="15" xml:space="preserve">2</tspan>
          </text>
        </g>
        <g id="Graphic_73">
          <rect x="57.00195" y="385.306" width="33.60547" height="28.041667" fill="white"/>
          <rect x="57.00195" y="385.306" width="33.60547" height="28.041667" stroke="gray" stroke-linecap="round" stroke-linejoin="round" stroke-width="1"/>
          <text transform="translate(62.00195 390.10282)" fill="black">
            <tspan font-family="Helvetica Neue" font-size="16" fill="black" x="7.354734" y="15" xml:space="preserve">6</tspan>
          </text>
        </g>
        <g id="Graphic_65">
          <rect x="57.00195" y="160.97266" width="33.60547" height="28.041667" fill="white"/>
          <rect x="57.00195" y="160.97266" width="33.60547" height="28.041667" stroke="gray" stroke-linecap="round" stroke-linejoin="round" stroke-width="1"/>
          <text transform="translate(62.00195 165.7695)" fill="black">
            <tspan font-family="Helvetica Neue" font-size="16" fill="black" x="7.354734" y="15" xml:space="preserve">0</tspan>
          </text>
        </g>
        <g id="Graphic_60">
          <rect x="57.00195" y="76.84766" width="33.60547" height="28.041667" fill="white"/>
          <rect x="57.00195" y="76.84766" width="33.60547" height="28.041667" stroke="gray" stroke-linecap="round" stroke-linejoin="round" stroke-width="1"/>
          <text transform="translate(62.00195 81.64449)" fill="black">
            <tspan font-family="Helvetica Neue" font-size="16" fill="black" x="7.354734" y="15" xml:space="preserve">3</tspan>
          </text>
        </g>
        <g id="Graphic_70">
          <rect x="57.00195" y="301.181" width="33.60547" height="28.041667" fill="white"/>
          <rect x="57.00195" y="301.181" width="33.60547" height="28.041667" stroke="gray" stroke-linecap="round" stroke-linejoin="round" stroke-width="1"/>
          <text transform="translate(62.00195 305.97782)" fill="black">
            <tspan font-family="Helvetica Neue" font-size="16" fill="black" x="7.354734" y="15" xml:space="preserve">1</tspan>
          </text>
        </g>
        <g id="Graphic_68">
          <rect x="57.00195" y="245.09766" width="33.60547" height="28.041667" fill="white"/>
          <rect x="57.00195" y="245.09766" width="33.60547" height="28.041667" stroke="gray" stroke-linecap="round" stroke-linejoin="round" stroke-width="1"/>
          <text transform="translate(62.00195 249.8945)" fill="black">
            <tspan font-family="Helvetica Neue" font-size="16" fill="black" x="7.354734" y="15" xml:space="preserve">4</tspan>
          </text>
        </g>
        <g id="Graphic_67">
          <rect x="57.00195" y="217.056" width="33.60547" height="28.041667" fill="white"/>
          <rect x="57.00195" y="217.056" width="33.60547" height="28.041667" stroke="gray" stroke-linecap="round" stroke-linejoin="round" stroke-width="1"/>
          <text transform="translate(62.00195 221.85282)" fill="black">
            <tspan font-family="Helvetica Neue" font-size="16" fill="black" x="7.354734" y="15" xml:space="preserve">7</tspan>
          </text>
        </g>
        <g id="Graphic_69">
          <rect x="57.00195" y="273.13932" width="33.60547" height="28.041667" fill="white"/>
          <rect x="57.00195" y="273.13932" width="33.60547" height="28.041667" stroke="gray" stroke-linecap="round" stroke-linejoin="round" stroke-width="1"/>
          <text transform="translate(62.00195 277.93616)" fill="black">
            <tspan font-family="Helvetica Neue" font-size="16" fill="black" x="2.9067344" y="15" xml:space="preserve">11</tspan>
          </text>
        </g>
        <g id="Graphic_66">
          <rect x="57.00195" y="189.01432" width="33.60547" height="28.041667" fill="white"/>
          <rect x="57.00195" y="189.01432" width="33.60547" height="28.041667" stroke="gray" stroke-linecap="round" stroke-linejoin="round" stroke-width="1"/>
          <text transform="translate(62.00195 193.81116)" fill="black">
            <tspan font-family="Helvetica Neue" font-size="16" fill="black" x="7.354734" y="15" xml:space="preserve">8</tspan>
          </text>
        </g>
      </g>
      <g id="Graphic_89">
        <text transform="translate(48.76297 39.68164)" fill="#686868">
          <tspan font-family="Helvetica Neue" font-style="italic" font-size="12" fill="#686868" x="7.233367" y="11" xml:space="preserve">index by </tspan>
          <tspan font-family="Helvetica Neue" font-style="italic" font-size="12" fill="#686868" x="6.2373666" y="25.336" xml:space="preserve">surname</tspan>
        </text>
      </g>
      <g id="Graphic_90">
        <text transform="translate(224.47656 54.01764)" fill="#686868">
          <tspan font-family="Helvetica Neue" font-style="italic" font-size="12" fill="#686868" x="21.37772" y="11" xml:space="preserve">given name, surname, score</tspan>
        </text>
      </g>
      <g id="Line_148">
        <path d="M 90.60742 90.86849 C 90.60742 90.86849 118.67527 136.36764 153 160 C 169.5678 171.40683 183.8329 175.13013 194.15827 175.9297" marker-end="url(#FilledArrow_Marker)" stroke="#8a8a8a" stroke-linecap="round" stroke-linejoin="round" stroke-dasharray="4.0,4.0" stroke-width="1"/>
      </g>
      <g id="Line_149">
        <path d="M 90.60742 118.91016 C 90.60742 118.91016 119.77413 130.19719 140 190 C 160.22587 249.8028 141.66844 278.67642 162 330 C 172.12727 355.5646 184.51296 365.87365 194.39454 369.7821" marker-end="url(#FilledArrow_Marker)" stroke="#8a8a8a" stroke-linecap="round" stroke-linejoin="round" stroke-dasharray="4.0,4.0" stroke-width="1"/>
      </g>
      <g id="Line_150">
        <path d="M 90.60742 146.95182 C 90.60742 146.95182 111.67527 137.22428 146 137 C 164.43726 136.87953 182.04247 139.53138 194.38994 142.01205" marker-end="url(#FilledArrow_Marker)" stroke="#8a8a8a" stroke-linecap="round" stroke-linejoin="round" stroke-dasharray="4.0,4.0" stroke-width="1"/>
      </g>
      <g id="Line_151">
        <path d="M 90.60742 174.9935 C 90.60742 174.9935 113.77413 176.39612 134 156 C 154.22587 135.60388 139.96861 121.72358 162 103 C 172.64566 93.95268 184.62286 90.59247 194.15917 89.53572" marker-end="url(#FilledArrow_Marker)" stroke="#8a8a8a" stroke-linecap="round" stroke-linejoin="round" stroke-dasharray="4.0,4.0" stroke-width="1"/>
      </g>
      <g id="Line_152">
        <path d="M 90.60742 203.03516 C 90.60742 203.03516 102.65777 197.96276 126 226 C 149.34223 254.03724 148.70217 276.8113 173 302 C 181.2709 310.57414 188.4028 314.80697 194.21276 316.66053" marker-end="url(#FilledArrow_Marker)" stroke="#8a8a8a" stroke-linecap="round" stroke-linejoin="round" stroke-dasharray="4.0,4.0" stroke-width="1"/>
      </g>
      <g id="Line_153">
        <path d="M 90.60742 231.07682 C 90.60742 231.07682 105.67527 259.21755 140 275 C 159.53251 283.981 180.0741 286.55698 194.15134 287.10927" marker-end="url(#FilledArrow_Marker)" stroke="#8a8a8a" stroke-linecap="round" stroke-linejoin="round" stroke-dasharray="4.0,4.0" stroke-width="1"/>
      </g>
      <g id="Line_154">
        <path d="M 90.60742 258.79218 C 90.6431 255.20658 91.87266 222.98789 124.26172 207.82812 C 146.13816 197.58881 175.67327 198.20053 194.21853 199.99093" marker-end="url(#FilledArrow_Marker)" stroke="#8a8a8a" stroke-linecap="round" stroke-linejoin="round" stroke-dasharray="4.0,4.0" stroke-width="1"/>
      </g>
      <g id="Line_155">
        <path d="M 90.60742 287.16016 C 90.60742 287.16016 95.22438 275.1314 118 302 C 140.77562 328.8686 144.43573 354.43863 171 382 C 180.34278 391.69346 188.1563 396.70656 194.3606 399.13246" marker-end="url(#FilledArrow_Marker)" stroke="#8a8a8a" stroke-linecap="round" stroke-linejoin="round" stroke-dasharray="4.0,4.0" stroke-width="1"/>
      </g>
      <g id="Line_156">
        <path d="M 90.60742 315.20182 C 90.60742 315.20182 98.67527 249.8583 133 194 C 154.36345 159.23422 179.64562 138.31768 195.69294 127.47835" marker-end="url(#FilledArrow_Marker)" stroke="#8a8a8a" stroke-linecap="round" stroke-linejoin="round" stroke-dasharray="4.0,4.0" stroke-width="1"/>
      </g>
      <g id="Line_157">
        <path d="M 90.60742 343.2435 C 90.60742 343.2435 106.67527 360.05902 141 360 C 160.63332 359.96624 180.959 354.4207 194.76155 349.6798" marker-end="url(#FilledArrow_Marker)" stroke="#8a8a8a" stroke-linecap="round" stroke-linejoin="round" stroke-dasharray="4.0,4.0" stroke-width="1"/>
      </g>
      <g id="Line_158">
        <path d="M 90.60742 371.28516 C 90.60742 371.28516 101.77413 367.52764 122 336 C 142.22587 304.47236 136.56895 289.87872 162 260 C 173.93083 245.98257 185.62034 238.63243 194.66902 234.77892" marker-end="url(#FilledArrow_Marker)" stroke="#8a8a8a" stroke-linecap="round" stroke-linejoin="round" stroke-dasharray="4.0,4.0" stroke-width="1"/>
      </g>
      <g id="Line_159">
        <path d="M 90.60742 399.3268 C 90.60742 399.3268 103.37447 398.35563 127 362 C 150.62553 325.64437 149.98547 300.2767 174 271 C 181.871 261.40428 188.63942 256.77312 194.18248 254.88298" marker-end="url(#FilledArrow_Marker)" stroke="#8a8a8a" stroke-linecap="round" stroke-linejoin="round" stroke-dasharray="4.0,4.0" stroke-width="1"/>
      </g>
    </g>
  </g>
</svg>
