<?xml version="1.0" encoding="UTF-8" standalone="no"?>
<!DOCTYPE svg PUBLIC "-//W3C//DTD SVG 1.1//EN" "http://www.w3.org/Graphics/SVG/1.1/DTD/svg11.dtd">
<svg xmlns="http://www.w3.org/2000/svg" xmlns:xl="http://www.w3.org/1999/xlink" version="1.1" xmlns:dc="http://purl.org/dc/elements/1.1/" viewBox="101.25 136.125 272.81237 116.38281" width="272.81237" height="116.38281">
  <defs/>
  <g id="Canvas_1" fill-opacity="1" stroke-opacity="1" stroke-dasharray="none" fill="none" stroke="none">
    <title>Canvas 1</title>
    <rect fill="white" x="101.25" y="136.125" width="272.81237" height="116.38281"/>
    <g id="Canvas_1_Layer_1">
      <title>Layer 1</title>
      <g id="Graphic_2">
        <text transform="translate(190.625 141.125)" fill="#ebd11a">
          <tspan font-family="Futura" font-size="80" fill="#ebd11a" x="0" y="83">{  }</tspan>
        </text>
      </g>
      <g id="Graphic_23">
        <path d="M 242.86145 194.20532 C 242.169 193.03876 241.34702 191.92774 240.39548 190.89306 L 237.2781 191.68886 L 236.06173 191.50558 L 236.6355 187.69767 C 235.32341 186.8373 233.932 186.14807 232.4928 185.63 L 228.15885 189.86234 L 227.32595 190.18928 L 226.56941 190.07528 L 224.38099 184.5 C 222.76537 184.60988 221.1606 184.91604 219.60544 185.41848 L 218.6339 188.87956 L 214.1151 188.19867 C 213.25864 188.8166 212.44027 189.511 211.6694 190.28186 C 210.94293 191.00833 210.28437 191.777 209.69374 192.57997 L 212.89195 195.85496 L 206.79646 198.24758 C 206.27917 199.85735 205.97201 201.51998 205.875 203.1925 L 210.51834 204.4959 L 210.99622 204.87697 L 206.72598 210.23217 C 207.2249 211.85027 207.9349 213.41729 208.85594 214.88999 L 214.62335 213.4177 L 213.61198 220.12971 C 214.61128 220.8998 215.66697 221.56195 216.76324 222.11613 L 220.49736 218.46955 L 222.6735 224.0135 C 224.19437 224.2494 225.73735 224.30863 227.26932 224.1912 L 228.72304 219.01232 L 233.38342 222.7285 C 234.60017 222.22293 235.77692 221.59133 236.89372 220.8337 L 235.57516 215.6685 L 241.45852 216.555 C 242.40064 215.3446 243.18346 214.05036 243.80698 212.70066 L 240.56989 209.38586 L 245.38902 207.49424 C 245.63502 205.94788 245.6982 204.37808 245.57857 202.81969 L 239.0207 200.97888 C 240.16532 205.50393 238.96752 210.49953 235.4273 214.03975 C 230.07678 219.39028 221.4019 219.39028 216.0514 214.03975 C 210.70087 208.68924 210.70087 200.01437 216.0514 194.66386 C 221.4019 189.31333 230.07678 189.31333 235.4273 194.66386 C 236.86586 196.10242 237.91765 197.7813 238.58265 199.57126 Z" fill="#38c544"/>
        <path d="M 242.86145 194.20532 C 242.169 193.03876 241.34702 191.92774 240.39548 190.89306 L 237.2781 191.68886 L 236.06173 191.50558 L 236.6355 187.69767 C 235.32341 186.8373 233.932 186.14807 232.4928 185.63 L 228.15885 189.86234 L 227.32595 190.18928 L 226.56941 190.07528 L 224.38099 184.5 C 222.76537 184.60988 221.1606 184.91604 219.60544 185.41848 L 218.6339 188.87956 L 214.1151 188.19867 C 213.25864 188.8166 212.44027 189.511 211.6694 190.28186 C 210.94293 191.00833 210.28437 191.777 209.69374 192.57997 L 212.89195 195.85496 L 206.79646 198.24758 C 206.27917 199.85735 205.97201 201.51998 205.875 203.1925 L 210.51834 204.4959 L 210.99622 204.87697 L 206.72598 210.23217 C 207.2249 211.85027 207.9349 213.41729 208.85594 214.88999 L 214.62335 213.4177 L 213.61198 220.12971 C 214.61128 220.8998 215.66697 221.56195 216.76324 222.11613 L 220.49736 218.46955 L 222.6735 224.0135 C 224.19437 224.2494 225.73735 224.30863 227.26932 224.1912 L 228.72304 219.01232 L 233.38342 222.7285 C 234.60017 222.22293 235.77692 221.59133 236.89372 220.8337 L 235.57516 215.6685 L 241.45852 216.555 C 242.40064 215.3446 243.18346 214.05036 243.80698 212.70066 L 240.56989 209.38586 L 245.38902 207.49424 C 245.63502 205.94788 245.6982 204.37808 245.57857 202.81969 L 239.0207 200.97888 C 240.16532 205.50393 238.96752 210.49953 235.4273 214.03975 C 230.07678 219.39028 221.4019 219.39028 216.0514 214.03975 C 210.70087 208.68924 210.70087 200.01437 216.0514 194.66386 C 221.4019 189.31333 230.07678 189.31333 235.4273 194.66386 C 236.86586 196.10242 237.91765 197.7813 238.58265 199.57126 Z" stroke="black" stroke-linecap="round" stroke-linejoin="round" stroke-width="1"/>
      </g>
      <g id="Graphic_24">
        <path d="M 266.48645 164.95532 C 265.794 163.78876 264.97202 162.67774 264.02048 161.64306 L 260.9031 162.43886 L 259.68673 162.25558 L 260.2605 158.44767 C 258.9484 157.5873 257.557 156.89807 256.1178 156.38 L 251.78385 160.61234 L 250.95095 160.93928 L 250.1944 160.82528 L 248.006 155.25 C 246.39037 155.35988 244.7856 155.66604 243.23044 156.16848 L 242.2589 159.62956 L 237.7401 158.94867 C 236.88364 159.5666 236.06527 160.261 235.2944 161.03186 C 234.56793 161.75833 233.90937 162.527 233.31874 163.32997 L 236.51695 166.60496 L 230.42146 168.99758 C 229.90417 170.60735 229.59701 172.26998 229.5 173.94251 L 234.14334 175.2459 L 234.62122 175.62697 L 230.35098 180.98217 C 230.8499 182.60027 231.5599 184.16729 232.48094 185.63999 L 238.24835 184.1677 L 237.23698 190.87971 C 238.23628 191.6498 239.29197 192.31195 240.38824 192.86613 L 244.12236 189.21955 L 246.2985 194.7635 C 247.81937 194.9994 249.36235 195.05863 250.89432 194.9412 L 252.34804 189.76232 L 257.00842 193.4785 C 258.22517 192.97293 259.40192 192.34133 260.51872 191.5837 L 259.20016 186.4185 L 265.08352 187.305 C 266.02564 186.09459 266.80846 184.80036 267.43198 183.45066 L 264.1949 180.13586 L 269.01402 178.24424 C 269.26 176.69788 269.3232 175.12808 269.20357 173.56969 L 262.6457 171.72888 C 263.79032 176.25393 262.59252 181.24953 259.0523 184.78975 C 253.70178 190.14028 245.0269 190.14028 239.6764 184.78975 C 234.32587 179.43924 234.32587 170.76437 239.6764 165.41386 C 245.0269 160.06333 253.70178 160.06333 259.0523 165.41386 C 260.49086 166.85242 261.54265 168.5313 262.20765 170.32126 Z" fill="#38c544"/>
        <path d="M 266.48645 164.95532 C 265.794 163.78876 264.97202 162.67774 264.02048 161.64306 L 260.9031 162.43886 L 259.68673 162.25558 L 260.2605 158.44767 C 258.9484 157.5873 257.557 156.89807 256.1178 156.38 L 251.78385 160.61234 L 250.95095 160.93928 L 250.1944 160.82528 L 248.006 155.25 C 246.39037 155.35988 244.7856 155.66604 243.23044 156.16848 L 242.2589 159.62956 L 237.7401 158.94867 C 236.88364 159.5666 236.06527 160.261 235.2944 161.03186 C 234.56793 161.75833 233.90937 162.527 233.31874 163.32997 L 236.51695 166.60496 L 230.42146 168.99758 C 229.90417 170.60735 229.59701 172.26998 229.5 173.94251 L 234.14334 175.2459 L 234.62122 175.62697 L 230.35098 180.98217 C 230.8499 182.60027 231.5599 184.16729 232.48094 185.63999 L 238.24835 184.1677 L 237.23698 190.87971 C 238.23628 191.6498 239.29197 192.31195 240.38824 192.86613 L 244.12236 189.21955 L 246.2985 194.7635 C 247.81937 194.9994 249.36235 195.05863 250.89432 194.9412 L 252.34804 189.76232 L 257.00842 193.4785 C 258.22517 192.97293 259.40192 192.34133 260.51872 191.5837 L 259.20016 186.4185 L 265.08352 187.305 C 266.02564 186.09459 266.80846 184.80036 267.43198 183.45066 L 264.1949 180.13586 L 269.01402 178.24424 C 269.26 176.69788 269.3232 175.12808 269.20357 173.56969 L 262.6457 171.72888 C 263.79032 176.25393 262.59252 181.24953 259.0523 184.78975 C 253.70178 190.14028 245.0269 190.14028 239.6764 184.78975 C 234.32587 179.43924 234.32587 170.76437 239.6764 165.41386 C 245.0269 160.06333 253.70178 160.06333 259.0523 165.41386 C 260.49086 166.85242 261.54265 168.5313 262.20765 170.32126 Z" stroke="black" stroke-linecap="round" stroke-linejoin="round" stroke-width="1"/>
      </g>
      <g id="Graphic_25">
        <path d="M 273.23645 208.83032 C 272.544 207.66376 271.72202 206.55274 270.77048 205.51806 L 267.6531 206.31386 L 266.43673 206.13058 L 267.0105 202.32267 C 265.6984 201.4623 264.307 200.77307 262.8678 200.255 L 258.53385 204.48734 L 257.70095 204.81428 L 256.9444 204.70028 L 254.756 199.125 C 253.14037 199.23488 251.5356 199.54104 249.98044 200.04348 L 249.0089 203.50456 L 244.4901 202.82367 C 243.63364 203.4416 242.81527 204.136 242.0444 204.90686 C 241.31793 205.63333 240.65937 206.402 240.06874 207.20497 L 243.26695 210.47996 L 237.17146 212.87258 C 236.65417 214.48235 236.34701 216.14498 236.25 217.8175 L 240.89334 219.1209 L 241.37122 219.50197 L 237.10098 224.85717 C 237.5999 226.47527 238.3099 228.0423 239.23094 229.515 L 244.99835 228.0427 L 243.98698 234.7547 C 244.98628 235.5248 246.04197 236.18695 247.13824 236.74113 L 250.87236 233.09455 L 253.0485 238.6385 C 254.56937 238.8744 256.11235 238.93363 257.64432 238.8162 L 259.09804 233.63732 L 263.75842 237.3535 C 264.97517 236.84793 266.15192 236.21633 267.26872 235.4587 L 265.95016 230.2935 L 271.83352 231.18 C 272.77564 229.9696 273.55846 228.67536 274.18198 227.32566 L 270.9449 224.01086 L 275.76402 222.11924 C 276.01 220.57288 276.0732 219.00308 275.95357 217.44469 L 269.3957 215.60388 C 270.54032 220.12893 269.34252 225.12453 265.8023 228.66475 C 260.45178 234.01528 251.7769 234.01528 246.4264 228.66475 C 241.07587 223.31424 241.07587 214.63937 246.4264 209.28886 C 251.7769 203.93833 260.45178 203.93833 265.8023 209.28886 C 267.24086 210.72742 268.29265 212.4063 268.95765 214.19626 Z" fill="#38c544"/>
        <path d="M 273.23645 208.83032 C 272.544 207.66376 271.72202 206.55274 270.77048 205.51806 L 267.6531 206.31386 L 266.43673 206.13058 L 267.0105 202.32267 C 265.6984 201.4623 264.307 200.77307 262.8678 200.255 L 258.53385 204.48734 L 257.70095 204.81428 L 256.9444 204.70028 L 254.756 199.125 C 253.14037 199.23488 251.5356 199.54104 249.98044 200.04348 L 249.0089 203.50456 L 244.4901 202.82367 C 243.63364 203.4416 242.81527 204.136 242.0444 204.90686 C 241.31793 205.63333 240.65937 206.402 240.06874 207.20497 L 243.26695 210.47996 L 237.17146 212.87258 C 236.65417 214.48235 236.34701 216.14498 236.25 217.8175 L 240.89334 219.1209 L 241.37122 219.50197 L 237.10098 224.85717 C 237.5999 226.47527 238.3099 228.0423 239.23094 229.515 L 244.99835 228.0427 L 243.98698 234.7547 C 244.98628 235.5248 246.04197 236.18695 247.13824 236.74113 L 250.87236 233.09455 L 253.0485 238.6385 C 254.56937 238.8744 256.11235 238.93363 257.64432 238.8162 L 259.09804 233.63732 L 263.75842 237.3535 C 264.97517 236.84793 266.15192 236.21633 267.26872 235.4587 L 265.95016 230.2935 L 271.83352 231.18 C 272.77564 229.9696 273.55846 228.67536 274.18198 227.32566 L 270.9449 224.01086 L 275.76402 222.11924 C 276.01 220.57288 276.0732 219.00308 275.95357 217.44469 L 269.3957 215.60388 C 270.54032 220.12893 269.34252 225.12453 265.8023 228.66475 C 260.45178 234.01528 251.7769 234.01528 246.4264 228.66475 C 241.07587 223.31424 241.07587 214.63937 246.4264 209.28886 C 251.7769 203.93833 260.45178 203.93833 265.8023 209.28886 C 267.24086 210.72742 268.29265 212.4063 268.95765 214.19626 Z" stroke="black" stroke-linecap="round" stroke-linejoin="round" stroke-width="1"/>
      </g>
      <g id="Graphic_26">
        <text transform="translate(106.25 160.25)" fill="#888">
          <tspan font-family="Helvetica Neue" font-size="32" fill="#888" x="0" y="30">01011</tspan>
          <tspan font-family="Helvetica Neue" font-size="32" fill="#888" x="0" y="67.896">11010</tspan>
        </text>
      </g>
      <g id="Graphic_27">
        <path d="M 302.40163 182.97003 C 294.31055 180.28118 297.53707 157.64548 310.44415 161.5078 C 311.64164 153.97892 326.65084 155.20094 326.55272 161.5078 C 335.96394 153.44125 347.99093 169.52579 339.92388 177.59234 C 349.60394 181.5032 339.80173 202.57446 331.85733 199.05457 C 331.22154 204.92138 317.01934 206.97444 315.7728 199.05457 C 307.73077 207.5126 290.96188 194.5079 302.40163 182.97003 Z" fill="#ffc0c0" fill-opacity=".5"/>
      </g>
      <g id="Graphic_28">
        <path d="M 330.52663 207.06372 C 322.43555 204.37487 325.66207 181.73917 338.56915 185.60148 C 339.76664 178.0726 354.77584 179.29462 354.6777 185.60148 C 364.08894 177.53493 376.11593 193.61947 368.0489 201.68602 C 377.72894 205.5969 367.92673 226.66814 359.98233 223.14826 C 359.34654 229.01507 345.14434 231.06813 343.8978 223.14826 C 335.85577 231.6063 319.08688 218.6016 330.52663 207.06372 Z" fill="#c0c0ff" fill-opacity=".5"/>
      </g>
      <g id="Graphic_29">
        <path d="M 302.40163 218.69966 C 294.31055 216.0108 297.53707 193.3751 310.44415 197.23742 C 311.64164 189.70854 326.65084 190.93056 326.55272 197.23742 C 335.96394 189.17087 347.99093 205.2554 339.92388 213.32196 C 349.60394 217.23283 339.80173 238.30408 331.85733 234.7842 C 331.22154 240.651 317.01934 242.70406 315.7728 234.7842 C 307.73077 243.24223 290.96188 230.23753 302.40163 218.69966 Z" fill="#ffffc0" fill-opacity=".5205143"/>
      </g>
      <g id="Graphic_30">
        <text transform="translate(307.1875 154.08763)" fill="black">
          <tspan font-family="Futura" font-size="30" fill="black" x="6.357422" y="31">CS</tspan>
          <tspan font-family="Futura" font-size="30" fill="black" x="0" y="70.893555">210</tspan>
        </text>
      </g>
    </g>
  </g>
</svg>
